<?xml version="1.0" standalone="no"?>
<!DOCTYPE svg PUBLIC "-//W3C//DTD SVG 20010904//EN"
 "http://www.w3.org/TR/2001/REC-SVG-20010904/DTD/svg10.dtd">
<svg version="1.0" xmlns="http://www.w3.org/2000/svg"
 width="1000.000000pt" height="1000.000000pt" viewBox="0 0 1000.000000 1000.000000"
 preserveAspectRatio="xMidYMid meet">
<metadata>
Created by potrace 1.14, written by Peter Selinger 2001-2017
</metadata>
<g transform="translate(0.000000,1000.000000) scale(0.100000,-0.100000)"
fill="#000000" stroke="none">
<path d="M2695 9161 c44 -26 152 -92 240 -146 88 -54 176 -107 195 -117 19
-11 40 -25 45 -32 16 -20 12 -4039 -4 -4131 -40 -231 -126 -381 -290 -505
-105 -80 -305 -152 -481 -175 -25 -3 -61 -8 -80 -12 -19 -3 -188 -7 -375 -8
-187 -2 -342 -4 -345 -4 -3 -1 -6 -55 -6 -121 -1 -115 -1 -120 20 -125 11 -2
50 -11 86 -19 36 -9 76 -18 90 -21 14 -2 70 -14 125 -25 55 -12 115 -23 134
-26 18 -3 43 -8 55 -10 11 -3 46 -9 76 -14 30 -6 66 -12 80 -15 26 -5 307 -53
350 -60 14 -2 45 -6 70 -10 25 -4 56 -8 70 -10 123 -19 287 -23 434 -11 99 7
134 12 241 31 52 10 239 60 290 78 249 91 489 290 731 609 41 53 74 100 74
103 0 4 6 12 13 19 7 8 71 101 143 207 71 107 134 200 141 209 7 8 33 42 58
74 96 126 190 213 280 259 58 30 141 54 152 44 4 -4 7 -999 7 -2210 l1 -2202
725 -3 725 -2 0 2214 c0 1218 2 2213 5 2211 3 -2 26 -6 50 -9 105 -12 298 -66
390 -108 24 -11 55 -24 68 -29 46 -18 168 -93 262 -162 177 -131 397 -378 537
-603 98 -156 271 -485 313 -591 7 -18 15 -33 19 -33 8 0 7 1832 -1 1845 -4 7
-692 10 -1902 9 -1317 0 -1896 3 -1899 10 -2 6 -4 758 -5 1671 l-1 1660 212
128 c117 71 219 133 227 138 8 5 42 25 74 44 l60 35 -1280 0 -1279 0 80 -49z"/>
</g>
</svg>
